<?xml version="1.0" encoding="UTF-8"?>
<svg version="1.1" xmlns="http://www.w3.org/2000/svg" width="512" height="512">
<path d="M0 0 C1.01790619 0.00215515 2.03581238 0.0043103 3.08456421 0.00653076 C17.69363523 0.05620146 32.02575853 0.30709809 46.375 3.3125 C47.34985352 3.51117676 48.32470703 3.70985352 49.32910156 3.91455078 C97.7109774 14.03517194 141.69928269 35.9516877 177.375 70.3125 C178.3640332 71.26068604 178.3640332 71.26068604 179.37304688 72.22802734 C188.86130305 81.37247479 197.6012044 90.66984009 205.375 101.3125 C206.23306152 102.46355017 207.09113451 103.61459177 207.94921875 104.765625 C213.98736829 112.95680614 219.34595521 121.47054105 224.375 130.3125 C224.73948242 130.94430176 225.10396484 131.57610352 225.47949219 132.22705078 C247.08534998 169.97532572 256.85198095 212.74189997 256.6875 255.9375 C256.68534485 256.95540619 256.6831897 257.97331238 256.68096924 259.02206421 C256.63129854 273.63113523 256.38040191 287.96325853 253.375 302.3125 C253.07698486 303.77478027 253.07698486 303.77478027 252.77294922 305.26660156 C242.65232806 353.6484774 220.7358123 397.63678269 186.375 433.3125 C185.74287598 433.97185547 185.11075195 434.63121094 184.45947266 435.31054688 C175.31502521 444.79880305 166.01765991 453.5387044 155.375 461.3125 C154.22394983 462.17056152 153.07290823 463.02863451 151.921875 463.88671875 C143.73224019 469.92427396 135.22961724 475.30707302 126.375 480.3125 C125.66778809 480.7146875 124.96057617 481.116875 124.23193359 481.53125 C101.09654164 494.5566741 75.92537591 503.30551461 49.9375 508.625 C49.21860596 508.77235596 48.49971191 508.91971191 47.7590332 509.0715332 C33.08339502 511.86090125 18.55831162 512.66142619 3.64770508 512.62817383 C0.70811513 512.6250221 -2.2304558 512.64854926 -5.16992188 512.67382812 C-18.54306192 512.71848737 -31.43916711 511.51301542 -44.625 509.3125 C-46.33055054 509.03031616 -46.33055054 509.03031616 -48.07055664 508.74243164 C-91.33802759 500.97044532 -132.38793216 480.98345309 -165.625 452.3125 C-166.37007813 451.67828125 -167.11515625 451.0440625 -167.8828125 450.390625 C-181.38779833 438.57948485 -194.05918743 425.82889772 -204.625 411.3125 C-205.48149066 410.16255169 -206.33826433 409.01281411 -207.1953125 407.86328125 C-213.23534209 399.67315742 -218.61867614 391.16870382 -223.625 382.3125 C-224.0271875 381.60528809 -224.429375 380.89807617 -224.84375 380.16943359 C-237.8691741 357.03404164 -246.61801461 331.86287591 -251.9375 305.875 C-252.08485596 305.15610596 -252.23221191 304.43721191 -252.3840332 303.6965332 C-255.35789088 288.05024391 -255.99800362 272.57681954 -255.9375 256.6875 C-255.93534485 255.66959381 -255.9331897 254.65168762 -255.93096924 253.60293579 C-255.88129854 238.99386477 -255.63040191 224.66174147 -252.625 210.3125 C-252.42632324 209.33764648 -252.22764648 208.36279297 -252.02294922 207.35839844 C-241.90232806 158.9765226 -219.9858123 114.98821731 -185.625 79.3125 C-184.99287598 78.65314453 -184.36075195 77.99378906 -183.70947266 77.31445312 C-174.56502521 67.82619695 -165.26765991 59.0862956 -154.625 51.3125 C-153.47394983 50.45443848 -152.32290823 49.59636549 -151.171875 48.73828125 C-142.98224019 42.70072604 -134.47961724 37.31792698 -125.625 32.3125 C-124.91778809 31.9103125 -124.21057617 31.508125 -123.48193359 31.09375 C-100.34654164 18.0683259 -75.17537591 9.31948539 -49.1875 4 C-48.46860596 3.85264404 -47.74971191 3.70528809 -47.0090332 3.5534668 C-31.36274391 0.57960912 -15.88931954 -0.06050362 0 0 Z " fill="#2F80ED" transform="translate(255.625,-0.3125)"/>
<path d="M0 0 C0.9384375 -0.01611328 1.876875 -0.03222656 2.84375 -0.04882812 C15.21814811 -0.05737398 25.89970846 4.08222832 35 12.5625 C43.4767486 21.63901855 47.47001351 31.63375278 47.5625 43.875 C47.56813965 44.58342041 47.5737793 45.29184082 47.57958984 46.02172852 C47.38851913 59.99741777 41.6247611 71.45554298 32.21875 81.4765625 C21.71297672 91.63975621 9.45311672 93.88481325 -4.57421875 93.65234375 C-17.66136265 93.07878462 -27.16737126 86.22079831 -36 77.125 C-45.82293369 65.73353398 -46.54701745 52.23776128 -45.96777344 37.94335938 C-45.1066684 27.54059272 -38.22911724 17.42988911 -30.73828125 10.43359375 C-26.45668906 7.07729653 -21.76705119 4.41088643 -16.75 2.3125 C-15.90179688 1.95285156 -15.05359375 1.59320313 -14.1796875 1.22265625 C-9.42383774 -0.03943144 -4.89947113 -0.01655227 0 0 Z " fill="#FDFEFE" transform="translate(133.75,311.6875)"/>
<path d="M0 0 C0.79019531 0.00563965 1.58039063 0.0112793 2.39453125 0.01708984 C13.4691615 0.24480516 22.23718549 2.88875564 31.3125 9.3125 C31.96089844 9.76496094 32.60929687 10.21742188 33.27734375 10.68359375 C38.40624737 14.64530705 41.40050217 19.58920744 44.3125 25.3125 C44.72886719 26.08851563 45.14523438 26.86453125 45.57421875 27.6640625 C50.47021556 38.4867923 50.19570885 53.40323707 46.3125 64.5 C40.45583615 77.14581328 31.43328187 84.76722972 18.5 89.6875 C4.9662655 94.14791391 -7.90918391 93.01910735 -20.8125 87.125 C-29.99739493 82.22638937 -36.08785762 75.58168815 -40.6875 66.3125 C-41.10128906 65.55066406 -41.51507813 64.78882813 -41.94140625 64.00390625 C-46.59804304 53.8631467 -46.35031689 40.21142114 -43.76953125 29.50390625 C-38.86163074 17.0356153 -30.66182589 8.74234966 -18.53125 3.390625 C-12.21381661 0.9955541 -6.69934648 -0.05018774 0 0 Z " fill="#FDFDFE" transform="translate(132.6875,206.6875)"/>
<path d="M0 0 C0.77743396 -0.00297112 1.55486791 -0.00594224 2.35586047 -0.0090034 C4.97518644 -0.01771285 7.59446683 -0.01920055 10.21380615 -0.02069092 C12.08611652 -0.02531755 13.95842594 -0.030342 15.83073425 -0.03573608 C20.9279632 -0.04887812 26.02517897 -0.0553087 31.12242222 -0.05974674 C34.30550121 -0.06267493 37.48857658 -0.06677927 40.67165375 -0.07125092 C50.62636144 -0.0849314 60.58106088 -0.09459502 70.53577733 -0.09845281 C82.03489218 -0.10293326 93.53388815 -0.12047829 105.03296685 -0.1494534 C113.91540784 -0.17105962 122.79781536 -0.18115654 131.68028235 -0.18249393 C136.98793334 -0.18354283 142.29547265 -0.1894687 147.60309601 -0.20731354 C152.59680082 -0.22377558 157.59030981 -0.22595877 162.58403206 -0.21717453 C164.41660905 -0.21640312 166.24919649 -0.22076053 168.08174706 -0.23063278 C170.58459833 -0.24332479 173.08675322 -0.23749059 175.58959961 -0.22705078 C176.31392945 -0.23510719 177.03825928 -0.24316359 177.78453851 -0.25146413 C183.9738305 -0.19113281 187.80673751 1.62563356 192.42376709 5.64044189 C195.23693448 9.29118663 195.1941656 12.97451026 194.96282959 17.44903564 C194.31153124 21.6824749 193.27574797 23.78415773 190.54876709 27.14044189 C185.45562326 29.83256438 181.2223826 30.57606465 175.45829773 30.52812195 C174.6725081 30.53350749 173.88671847 30.53889302 173.07711703 30.54444176 C170.45935074 30.55868303 167.84209286 30.55162729 165.2243042 30.54449463 C163.34140111 30.5502001 161.45850149 30.55716505 159.5756073 30.56529236 C154.47242593 30.58321655 149.36941656 30.58205708 144.26621318 30.57634997 C140.00407696 30.57325791 135.74197377 30.57935058 131.47984225 30.58538872 C121.42621041 30.59942911 111.37266357 30.5978759 101.31903076 30.58648682 C90.94825087 30.57499808 80.57772936 30.58909513 70.20698351 30.61588329 C61.29894818 30.63803138 52.39099401 30.64467991 43.4829331 30.63880688 C38.1641617 30.63543494 32.84555603 30.63786853 27.52680779 30.65505791 C22.52721784 30.67051135 17.52801136 30.66658922 12.52843666 30.64775276 C10.69424895 30.64406286 8.86003292 30.64718702 7.02587128 30.65763855 C4.5208887 30.67082255 2.01718057 30.6593249 -0.48774719 30.64164734 C-1.21255738 30.65125235 -1.93736756 30.66085735 -2.6841417 30.67075342 C-7.71920417 30.59770117 -10.54719672 29.25816329 -14.45123291 26.14044189 C-17.32790838 22.90995073 -18.70411439 19.38604136 -18.95123291 15.07794189 C-18.23061939 9.40311045 -16.05777582 6.55572969 -11.82623291 2.82794189 C-7.79877263 -0.03367462 -4.80690574 -0.0056803 0 0 Z " fill="#FCFDFE" transform="translate(229.45123291015625,131.85955810546875)"/>
<path d="M0 0 C0.78352408 -0.00623996 1.56704815 -0.01247993 2.37431538 -0.01890898 C4.99066708 -0.03481942 7.60608459 -0.02224266 10.22244263 -0.00964355 C12.10195457 -0.01506564 13.98146226 -0.02218878 15.86096191 -0.03088379 C20.96026078 -0.04911227 26.05923575 -0.04205084 31.15854025 -0.02936745 C36.49862631 -0.01923439 41.83868481 -0.02863426 47.17877197 -0.03491211 C56.14845757 -0.04218887 65.11801141 -0.03260133 74.087677 -0.0135498 C84.44988575 0.00820568 94.81177952 0.00117724 105.17398059 -0.02085543 C114.07609113 -0.0390244 122.97810698 -0.04156001 131.88023007 -0.03110075 C137.19459831 -0.02487237 142.50881866 -0.02401195 147.82317734 -0.0372467 C152.82195603 -0.04882584 157.82032999 -0.04074163 162.81906509 -0.01766968 C164.65079324 -0.01239305 166.48255561 -0.0138784 168.31427002 -0.02272034 C170.82080866 -0.03370149 173.3260621 -0.01988218 175.83251953 0 C176.55218615 -0.00892289 177.27185278 -0.01784577 178.01332748 -0.02703905 C183.45963329 0.056378 187.52322285 1.61975907 192.04324341 4.50793457 C195.12761999 7.68869792 195.28958489 10.67043489 195.48074341 14.94543457 C195.34089263 19.89348813 194.43156873 22.74312865 191.04324341 26.50793457 C186.3050197 30.80194981 181.55209849 30.65667564 175.39619446 30.65510559 C174.62184077 30.65878228 173.84748708 30.66245897 173.04966813 30.66624707 C170.45271189 30.6772677 167.85579569 30.68112497 165.25881958 30.68493652 C163.39768853 30.6912023 161.53655873 30.6978492 159.6754303 30.70484924 C153.56236642 30.72587492 147.44930233 30.73624885 141.33621216 30.74621582 C139.23138224 30.75026365 137.12655245 30.75438058 135.02172279 30.7585659 C125.13483204 30.77761268 115.24794873 30.79184594 105.36104316 30.80017787 C93.9479535 30.8099549 82.53505755 30.83628877 71.12203616 30.87667876 C62.29983676 30.90682906 53.47769294 30.92164564 44.65544301 30.92495888 C39.38631393 30.92731021 34.11739192 30.93628183 28.8483181 30.96142006 C23.89147698 30.9846873 18.93497948 30.98893939 13.97809792 30.97865868 C12.16044599 30.97816291 10.34277722 30.98449531 8.525177 30.99821472 C6.04012114 31.0159205 3.55630035 31.00883466 1.07124329 30.99568176 C0.35508148 31.00665101 -0.36108033 31.01762025 -1.09894401 31.0289219 C-6.53451867 30.95964967 -9.56153537 29.47236917 -13.95675659 26.50793457 C-16.79571373 23.05707188 -17.84213184 19.32463596 -18.45675659 14.94543457 C-17.64544851 9.3676915 -15.77188393 5.95848398 -11.36274529 2.43494415 C-7.42488862 0.2070191 -4.39685059 -0.05417909 0 0 Z " fill="#FDFDFE" transform="translate(228.95675659179688,238.4920654296875)"/>
<path d="M0 0 C0.79310231 -0.00638882 1.58620462 -0.01277764 2.40334034 -0.01936007 C5.05220833 -0.03458083 7.69957354 -0.01416911 10.34838867 0.00622559 C12.25084935 0.0027235 14.15330711 -0.00293606 16.05575562 -0.0105896 C21.21699024 -0.02483464 26.37769191 -0.00777862 31.53887558 0.01569557 C36.94127959 0.03580617 42.34366151 0.0299249 47.74609375 0.02758789 C56.81836738 0.02764146 65.89043272 0.04739704 74.96264648 0.07946777 C85.44982781 0.1163604 95.93673629 0.12514326 106.42397404 0.11817026 C116.51432541 0.11186394 126.60458327 0.12262197 136.69491577 0.14213562 C140.98824395 0.15030812 145.28152432 0.15301944 149.57485962 0.15144348 C154.63104609 0.15056422 159.68697347 0.16479211 164.74309158 0.19067001 C166.59822966 0.19782914 168.45339531 0.19991666 170.30854416 0.19655228 C172.84188169 0.19283448 175.37446435 0.20759517 177.90771484 0.22705078 C178.64098905 0.22172286 179.37426325 0.21639493 180.12975788 0.21090555 C184.80126954 0.2727574 187.98087889 1.17119415 191.95385742 3.62145996 C195.42373633 7.27396408 196.25398928 10.21802826 196.45385742 15.12145996 C196.25398928 20.02489166 195.42373633 22.96895584 191.95385742 26.62145996 C187.27372831 29.50664598 183.29547467 30.05672261 177.91444397 30.02259827 C177.12204722 30.02939494 176.32965048 30.03619161 175.51324171 30.04319423 C172.86709157 30.06213316 170.22140558 30.0597316 167.57519531 30.05725098 C165.67435615 30.06623045 163.77352245 30.07643914 161.87269592 30.08778381 C156.71569158 30.11426567 151.5588366 30.12131643 146.40177083 30.12323117 C143.17911621 30.12536449 139.9564995 30.13177078 136.73385429 30.13972282 C125.48921168 30.16746814 114.24467571 30.17972909 103 30.17736816 C92.52066987 30.17556509 82.04180266 30.20723821 71.5625897 30.25459915 C62.56198703 30.29382704 53.56153569 30.30991985 44.56084818 30.30800194 C39.18659492 30.30723714 33.81275333 30.31578173 28.43858528 30.34753609 C23.38470824 30.37658374 18.33163639 30.37681525 13.27773094 30.35498619 C11.42460072 30.35184931 9.57142031 30.35893396 7.71837616 30.37706757 C5.18472413 30.40025303 2.65384745 30.38628834 0.12025452 30.36317444 C-0.61010684 30.37860513 -1.34046821 30.39403582 -2.09296173 30.4099341 C-7.35974334 30.30401446 -9.96785625 28.59256887 -13.66161162 25.14592117 C-16.53146235 21.98602353 -16.97887142 19.36144267 -17.35864258 15.18395996 C-16.88378837 9.770622 -15.23774586 6.82516143 -11.43183899 2.98061371 C-7.86952092 0.11269342 -4.4501264 -0.07596886 0 0 Z " fill="#FEFEFE" transform="translate(228.046142578125,345.3785400390625)"/>
<path d="M0 0 C4.61306454 2.44512219 7.77052727 5.55277329 10.1328125 10.27734375 C10.59183456 17.16267472 9.63265728 21.35922173 4.97669983 26.79421997 C4.14271164 27.62154633 3.30872345 28.44887268 2.44946289 29.30126953 C1.98727859 29.76389191 1.5250943 30.22651428 1.04890442 30.70315552 C-0.46689976 32.21688523 -1.99302297 33.7197283 -3.51953125 35.22265625 C-4.58248964 36.28001034 -5.64478091 37.33803547 -6.70643616 38.396698 C-9.49470151 41.17355058 -12.29185041 43.94128191 -15.09100342 46.70715332 C-17.93260395 49.518088 -20.76576535 52.33749955 -23.59960938 55.15625 C-28.58775868 60.11574535 -33.58321927 65.0677697 -38.58409119 70.01443481 C-40.07752684 71.49466535 -41.54552033 73.00112897 -42.9834137 74.53536987 C-45.63885502 76.99092447 -47.54857623 76.90987699 -51.1171875 76.96484375 C-52.73367187 77.03251953 -52.73367187 77.03251953 -54.3828125 77.1015625 C-59.50148208 75.89075613 -62.1990906 72.92170835 -65.8671875 69.27734375 C-66.63756348 68.52638428 -67.40793945 67.7754248 -68.20166016 67.00170898 C-70.67220152 64.57067839 -73.11637459 62.11567487 -75.5546875 59.65234375 C-76.79702148 58.40324219 -76.79702148 58.40324219 -78.06445312 57.12890625 C-79.64734661 55.53714146 -81.22804791 53.94319255 -82.80615234 52.34667969 C-84.47925653 50.6668371 -86.17616591 49.02010406 -87.88671875 47.37890625 C-91.02415399 44.04963572 -91.21844175 40.81593504 -91.14453125 36.33203125 C-90.51188576 31.64510835 -87.30558049 28.75748845 -84.2421875 25.40234375 C-79.80841326 22.61070811 -75.98754139 22.14555821 -70.8671875 23.27734375 C-66.01815956 26.01385952 -62.32941517 29.5669458 -58.4921875 33.52734375 C-57.94691406 34.08164063 -57.40164062 34.6359375 -56.83984375 35.20703125 C-55.51095773 36.55923106 -54.18840202 37.91764725 -52.8671875 39.27734375 C-49.70100919 37.8790867 -47.59264287 36.23909883 -45.171875 33.77734375 C-44.46434082 33.06320313 -43.75680664 32.3490625 -43.02783203 31.61328125 C-42.27356934 30.84242188 -41.51930664 30.0715625 -40.7421875 29.27734375 C-39.95827637 28.48585937 -39.17436523 27.694375 -38.36669922 26.87890625 C-35.86201479 24.34978831 -33.36385577 21.81437386 -30.8671875 19.27734375 C-27.58125119 15.93828607 -24.28882664 12.6058312 -20.9921875 9.27734375 C-20.2379248 8.50648437 -19.48366211 7.735625 -18.70654297 6.94140625 C-17.99900879 6.22726563 -17.29147461 5.513125 -16.5625 4.77734375 C-15.94391113 4.14828125 -15.32532227 3.51921875 -14.68798828 2.87109375 C-10.36168469 -0.9157271 -5.56397797 -2.15342244 0 0 Z " fill="#FEFEFE" transform="translate(177.8671875,106.72265625)"/>
<path d="M0 0 C4.00895523 2.04092266 6.63568881 4.19271378 9 8 C9.93647239 14.07788945 9.61875585 19.88382794 6 25 C2.3200984 28.40390898 -0.26528618 29.8690782 -5.3125 30.25 C-10.66430237 29.88716594 -13.71949363 28.41893949 -17.3125 24.4375 C-20.7600112 19.4577616 -20.45575511 14.9334156 -20 9 C-18.50033091 4.85385604 -16.02157341 2.76927539 -12.09375 0.73046875 C-8.06908257 -0.67365963 -4.17927802 -0.68964984 0 0 Z " fill="#3282ED" transform="translate(140,239)"/>
<path d="M0 0 C3.90993968 2.0421341 6.3778444 4.14832161 7.90234375 8.2734375 C8.57311642 13.20361659 8.56207765 17.70838659 6.27734375 22.2109375 C3.10853849 26.29702849 0.66844207 27.91303381 -4.49609375 28.5859375 C-10.19088168 28.85956094 -13.71832261 28.22551908 -18.09765625 24.2734375 C-21.69822899 20.31280749 -21.60096507 16.05848091 -21.44921875 10.93359375 C-20.81088713 6.10355119 -18.51545896 3.52443989 -14.97265625 0.3984375 C-10.09599338 -1.50982189 -4.9881126 -1.72772615 0 0 Z " fill="#3181ED" transform="translate(141.09765625,346.7265625)"/>
</svg>
